   <svg width="24" height="24" viewBox="0 0 24 24" fill="none" xmlns="http://www.w3.org/2000/svg">
                      <g clip-path="url(#clip0_16_204)">
                        <path
                          d="M19.822 10.1109C19.3533 9.81725 18.7395 9.95817 18.4458 10.4269L13.1372 18.8996C11.6712 21.2392 8.58684 21.9508 6.24324 20.4824C3.89964 19.014 3.19456 15.9281 4.66048 13.5885L11.0319 3.41961C11.9104 2.01742 13.7608 1.5892 15.1669 2.47025C16.5731 3.35129 16.9948 5.20312 16.1163 6.6053L10.8051 15.082C10.5115 15.5507 9.89369 15.6891 9.42894 15.3979C8.96419 15.1068 8.8193 14.4905 9.11298 14.0217L13.3614 7.2412C13.6551 6.77248 13.5102 6.15619 13.0454 5.865C12.5767 5.57132 11.9629 5.71224 11.6692 6.18096L7.42082 12.9615C6.53978 14.3677 6.96402 16.2155 8.37018 17.0966C9.77634 17.9776 11.6242 17.5534 12.5052 16.1472L17.8139 7.67449C19.2759 5.33238 18.5668 2.24401 16.2272 0.778087C13.8875 -0.68783 10.8031 0.0237135 9.33722 2.36334L2.96583 12.5322C0.912549 15.8093 1.90742 20.1277 5.18052 22.1785C8.45361 24.2293 12.776 23.2369 14.8268 19.9638L20.138 11.4871C20.4317 11.0184 20.2907 10.4046 19.822 10.1109Z"
                          fill="#009677"
                        />
                      </g>
                      <defs>
                        <clipPath id="clip0_16_204">
                          <rect width="24" height="24" fill="white" />
                        </clipPath>
                      </defs>
                    </svg>